<svg xmlns="http://www.w3.org/2000/svg" id="Layer_2" viewBox="0 0 88.8 24"><g id="Layer_1-2"><path d="M6.2,7.4v1.5c0,.5,.1,.6,.6,.6h.6c.9,0,1.4-.5,1.7-1.4,.2-1,0-2-.7-2.4,0,0-.1,0-.2,0-.4-.2-.9-.3-1.4-.2-.4,0-.5,.1-.5,.5,0,.5,0,1,0,1.5h0Zm.9,6.9h-.2c-.6,0-.7,.1-.7,.7v3.1c0,.3,0,.5,.4,.5,.7,0,1.4,0,2-.4,.8-.6,.9-1.5,.7-2.4-.1-.8-.8-1.4-1.6-1.5-.2,0-.4,0-.6,0M0,12V1.4c0-.2,0-.3,0-.5C.1,.5,.4,.3,.8,.3H3c1.7,0,3.5,0,5.2,0,2.5,.1,4.6,1.2,5.9,3.3,1.3,2,1.3,4.2,.2,6.4-.3,.5-.6,.9-1,1.4-.3,.4-.3,.5,0,.9,1,.9,1.7,2,1.9,3.4,.4,2-.2,4-1.6,5.4-1.6,1.8-3.6,2.5-6,2.5-2.3,0-4.5,0-6.8,0s-.8-.2-.9-.8V12H0Z" fill="#ef4223"></path><path d="M22.5,12v5.5c0,.6,.6,1.1,1.2,1.1,.3,0,.6,0,.8-.2,.2-.2,.4-.4,.5-.7,0-.2,0-.4,0-.7V7c0-.2,0-.4,0-.7,0-.5-.4-.8-.9-.9-.5,0-1,0-1.3,.5-.1,.3-.2,.6-.2,.8,0,1.7,0,3.5,0,5.2Zm-6.3,0c0-1.8,0-3.6,0-5.4,0-2.8,1.4-4.7,4-5.8,2.4-1.1,5.2-1,7.6,.2,1.9,1,3,2.6,3.3,4.8,0,.5,.1,1,0,1.6v9.6c0,1.3-.3,2.7-1,3.8-.7,1.1-1.7,2-2.9,2.5-2.3,1-4.9,1-7.2,0-2.4-1.1-3.8-3-3.9-5.8,0-1.8,0-3.6,0-5.5" fill="#ef4223"></path><path d="M72.4,8.4h0c-.3,1.7-.5,3.4-.8,5.1-.1,.7-.2,1.5-.3,2.3,0,.5,.1,.7,.6,.7h1.1c.4,0,.5-.2,.5-.5,0-.1,0-.3,0-.4l-.5-3.9c-.2-1.1-.3-2.2-.5-3.3h0Zm5.3,15.3h-2.4c-.5,0-.7-.1-.8-.7,0-.4-.1-.8-.2-1.2-.1-.7-.3-.9-1-.9-.7,0-1.4,0-2.1,0s-.7,.2-.8,.7c0,.4-.1,.9-.2,1.3,0,.6-.3,.8-.9,.8h-4.4c-.7,0-1-.3-.8-1,.4-1.7,.8-3.5,1.2-5.2,.8-3.4,1.6-6.9,2.4-10.3,.5-2,.9-4,1.4-6,.2-.7,.3-.8,1-.8h5c.8,0,.9,.1,1.1,.9,.5,2,.9,4.1,1.3,6.1,.8,3.8,1.7,7.7,2.5,11.5,.3,1.3,.6,2.6,.9,3.9,.1,.5-.1,1-.8,1-.8,0-1.6,0-2.4,0" fill="#ef4223"></path><path d="M54.9,12v5.1c0,.4,0,.7,.3,1,.3,.4,.8,.6,1.3,.5,.2,0,.5-.2,.6-.4,.2-.2,.2-.4,.3-.7,0-.3,0-.7,0-1,0-.5,.2-.7,.7-.7h4.8c.3,0,.7,.2,.7,.6h0c0,1.9-.2,3.6-1.4,5.1-1,1.3-2.4,2.1-4,2.4-1.8,.4-3.7,.3-5.5-.4-2.3-.9-3.7-2.7-4-5.2,0-.5,0-1,0-1.5V6.9c0-1.8,.5-3.4,1.8-4.7,1-1,2.3-1.7,3.7-2,1.9-.4,3.7-.3,5.5,.5,2.1,.8,3.5,2.7,3.8,5,0,.6,.1,1.2,.1,1.8,0,.5-.2,.8-.8,.8h-4.7c-.5,0-.7-.2-.7-.7,0-.3,0-.6,0-.8,0-.7-.5-1.2-1.2-1.2-.6,0-1.2,.4-1.3,1v.2c0,1.8,0,3.6,0,5.3h0Z" fill="#ef4223"></path><path d="M32.5,12c0-1.9,0-3.7,0-5.6,0-2.4,1.2-4.2,3.3-5.4,2.5-1.4,5.2-1.4,7.8-.3,2.1,.9,3.4,2.7,3.7,5,0,.5,0,1,0,1.5s-.2,.9-.9,.9h-4.5c-.6,0-.8-.2-.8-.8,0-.4,0-.8,0-1.1-.2-.6-.6-.9-1.3-.8-.6,0-1.1,.5-1.1,1,0,.2,0,.4,0,.7v9.6c0,.2,0,.5,0,.7,0,.6,.5,1,1.1,1.1,.6,0,1.1-.3,1.3-.8,0-.3,.1-.5,.1-.8,0-.3,0-.5,0-.8,0-.3,.2-.5,.5-.6h0c.1,0,.3,0,.4,0h4.3c.7,0,.9,.2,.9,.9,0,1.5-.2,2.9-1,4.2-.9,1.5-2.4,2.5-4.1,2.9-1.9,.5-3.9,.4-5.7-.3-2.3-.9-3.7-2.6-4.1-5.1,0-.4,0-.9,0-1.3v-5h0s0,0,0,0Z" fill="#ef4223"></path><path d="M85.2,16.6c2,0,3.6,1.6,3.6,3.6s-1.6,3.6-3.6,3.6-3.6-1.6-3.6-3.6,1.6-3.6,3.6-3.6Z" fill="#ef4223"></path></g></svg>