<?xml version="1.0" encoding="UTF-8"?><svg id="Layer_2" xmlns="http://www.w3.org/2000/svg" width="1033.28" height="215.93" viewBox="0 0 1033.28 215.93"><g id="Layer_1-2"><path d="m12.93,198.57c-3.82,0-6.93-1.02-9.33-3.05s-3.6-4.71-3.6-8.04c0-2.46.71-4.5,2.12-6.1,1.42-1.6,3.23-2.4,5.45-2.4,2.09,0,3.57.62,4.43,1.85.86,1.23,1.57,2.65,2.12,4.25.55,1.6,1.2,3.02,1.94,4.25.74,1.23,1.91,1.85,3.51,1.85,2.34,0,4.12-1.36,5.36-4.06,1.23-2.71,1.85-6.53,1.85-11.45V38.05c0-2.59-.4-4.31-1.2-5.17-.8-.86-2.49-1.54-5.08-2.03l-4.25-.74c-1.6-.37-2.4-1.11-2.4-2.22,0-1.35.92-2.03,2.77-2.03h33.43c1.85,0,2.77.68,2.77,2.03,0,1.11-.8,1.85-2.4,2.22l-4.25.74c-2.59.49-4.28,1.17-5.08,2.03-.8.86-1.2,2.59-1.2,5.17v112.68c0,14.78-2.4,26.44-7.2,35-4.8,8.56-11.39,12.84-19.76,12.84Z"/><path d="m84.6,160.52c-3.08,0-6.04-.68-8.87-2.03-2.83-1.35-5.17-3.51-7.02-6.47-1.85-2.96-2.77-6.89-2.77-11.82v-64.28c0-2.22-.34-3.75-1.02-4.62-.68-.86-1.88-1.35-3.6-1.48l-3.14-.37c-2.09-.25-3.14-1.04-3.14-2.4,0-1.6,1.17-2.4,3.51-2.4h17.18c1.85,0,2.77.92,2.77,2.77v68.9c0,5.67,1.08,9.7,3.23,12.1,2.15,2.4,5.14,3.6,8.96,3.6s7.2-1.08,10.16-3.23c2.96-2.15,5.32-5.05,7.11-8.68,1.78-3.63,2.68-7.6,2.68-11.91v-52.27c0-2.22-.34-3.75-1.02-4.62-.68-.86-1.88-1.35-3.6-1.48l-3.14-.37c-2.09-.25-3.14-1.04-3.14-2.4,0-1.6,1.17-2.4,3.51-2.4h17.18c1.85,0,2.77.92,2.77,2.77v71.67c0,2.22.34,3.73,1.02,4.53.68.8,1.88,1.33,3.6,1.57l3.88.55c1.6.12,2.4.74,2.4,1.85s-.99,1.85-2.96,2.22c-3.82.49-6.87,1.48-9.14,2.96-2.28,1.48-4.28,3.26-6,5.36-1.11,1.11-2.03,1.66-2.77,1.66-1.11,0-1.66-.74-1.66-2.22v-8.5c0-.98-.34-1.57-1.02-1.75-.68-.18-1.39.09-2.12.83-4.56,4.56-8.59,7.76-12.1,9.61-3.51,1.85-7.42,2.77-11.73,2.77Z"/><path d="m140.57,158.86c-1.48,0-2.22-.68-2.22-2.03,0-1.23.68-1.97,2.03-2.22l2.59-.37c2.59-.37,4.49-1.11,5.73-2.22,1.23-1.11,1.85-2.96,1.85-5.54V40.64c0-2.22-.34-3.76-1.02-4.62-.68-.86-1.88-1.35-3.6-1.48l-4.25-.55c-1.36-.25-2.03-.98-2.03-2.22s.68-1.97,2.03-2.22c3.45-.74,6.4-1.6,8.87-2.59,2.46-.98,4.49-1.97,6.1-2.96,1.97-1.23,3.45-1.85,4.43-1.85,1.35,0,2.03.99,2.03,2.96v121.36c0,2.59.4,4.4,1.2,5.45.8,1.05,2.49,1.75,5.08,2.12l4.25.55c1.35.25,2.03.99,2.03,2.22,0,1.36-.74,2.03-2.22,2.03h-32.88Z"/><path d="m183.05,158.86c-1.85,0-2.77-.68-2.77-2.03,0-1.11.8-1.85,2.4-2.22l2.22-.37c3.08-.49,5.05-1.26,5.91-2.31.86-1.04,1.29-2.86,1.29-5.45v-62.06c0-2.22-.34-3.72-1.02-4.53-.68-.8-1.88-1.32-3.6-1.57l-3.88-.55c-1.6-.12-2.4-.8-2.4-2.03,0-.98.98-1.66,2.96-2.03,3.82-.61,6.9-1.6,9.24-2.96,2.34-1.35,4.62-3.02,6.83-4.99,1.11-1.11,2.03-1.66,2.77-1.66,1.11,0,1.66.74,1.66,2.22v80.17c0,2.59.37,4.43,1.11,5.54.74,1.11,2.15,1.79,4.25,2.03l4.62.55c1.35.25,2.03.92,2.03,2.03,0,1.48-.92,2.22-2.77,2.22h-30.85Zm15.52-111.75c-2.59,0-4.77-.92-6.56-2.77-1.79-1.85-2.68-4.19-2.68-7.02s.89-5.14,2.68-6.93,3.97-2.68,6.56-2.68,4.74.89,6.46,2.68c1.72,1.79,2.59,4.1,2.59,6.93s-.86,5.17-2.59,7.02c-1.73,1.85-3.88,2.77-6.46,2.77Z"/><path d="m250.29,160.52c-3.08,0-6.04-.68-8.87-2.03-2.83-1.35-5.17-3.51-7.02-6.47-1.85-2.96-2.77-6.89-2.77-11.82v-64.28c0-2.22-.34-3.75-1.02-4.62-.68-.86-1.88-1.35-3.6-1.48l-3.14-.37c-2.09-.25-3.14-1.04-3.14-2.4,0-1.6,1.17-2.4,3.51-2.4h17.18c1.85,0,2.77.92,2.77,2.77v68.9c0,5.67,1.08,9.7,3.23,12.1,2.15,2.4,5.14,3.6,8.96,3.6s7.2-1.08,10.16-3.23c2.96-2.15,5.32-5.05,7.11-8.68,1.78-3.63,2.68-7.6,2.68-11.91v-52.27c0-2.22-.34-3.75-1.02-4.62-.68-.86-1.88-1.35-3.6-1.48l-3.14-.37c-2.09-.25-3.14-1.04-3.14-2.4,0-1.6,1.17-2.4,3.51-2.4h17.18c1.85,0,2.77.92,2.77,2.77v71.67c0,2.22.34,3.73,1.02,4.53.68.8,1.88,1.33,3.6,1.57l3.88.55c1.6.12,2.4.74,2.4,1.85s-.99,1.85-2.96,2.22c-3.82.49-6.87,1.48-9.14,2.96-2.28,1.48-4.28,3.26-6,5.36-1.11,1.11-2.03,1.66-2.77,1.66-1.11,0-1.66-.74-1.66-2.22v-8.5c0-.98-.34-1.57-1.02-1.75-.68-.18-1.39.09-2.12.83-4.56,4.56-8.59,7.76-12.1,9.61-3.51,1.85-7.42,2.77-11.73,2.77Z"/><path d="m326.76,160.52c-2.83,0-5.85-.34-9.05-1.02-3.2-.68-5.79-1.51-7.76-2.49-1.11-.62-1.66-1.66-1.66-3.14l-.55-20.69c0-2.09.8-3.14,2.4-3.14,1.35,0,2.28.99,2.77,2.96,2.09,8.75,4.65,14.72,7.67,17.92,3.02,3.2,6.68,4.8,10.99,4.8,3.57,0,6.53-1.38,8.87-4.16,2.34-2.77,3.51-6.62,3.51-11.54s-1.36-9.3-4.06-13.12c-2.71-3.82-7.27-8-13.67-12.56-6.4-4.31-11.08-8.65-14.04-13.02-2.96-4.37-4.43-9.14-4.43-14.32,0-7.02,2.46-12.68,7.39-16.99,4.92-4.31,11.45-6.46,19.58-6.46,2.46,0,4.86.28,7.2.83,2.34.55,4.43,1.45,6.28,2.68,1.11.74,1.66,1.73,1.66,2.96l.37,20.32c0,1.85-.74,2.77-2.22,2.77-.86,0-1.48-.28-1.85-.83-.37-.55-.68-1.26-.92-2.12-2.46-8-4.93-13.58-7.39-16.72-2.46-3.14-5.48-4.71-9.05-4.71-3.2,0-5.85,1.11-7.94,3.33-2.1,2.22-3.14,4.99-3.14,8.31,0,4.31,1.29,8.07,3.88,11.27,2.59,3.2,7.26,7.14,14.04,11.82,6.16,4.43,10.81,9.21,13.95,14.32,3.14,5.11,4.71,10.68,4.71,16.72,0,7.88-2.53,14.19-7.57,18.93-5.05,4.74-11.7,7.11-19.95,7.11Z"/><path d="m397.13,158.86c-1.85,0-2.77-.68-2.77-2.03,0-1.11.8-1.85,2.4-2.22l4.25-.74c2.59-.49,4.28-1.17,5.08-2.03.8-.86,1.2-2.59,1.2-5.17V38.05c0-2.59-.4-4.31-1.2-5.17-.8-.86-2.49-1.54-5.08-2.03l-4.25-.74c-1.6-.37-2.4-1.11-2.4-2.22,0-1.35.92-2.03,2.77-2.03h59.48c2.83,0,4.37,1.42,4.62,4.25l1.48,30.66c.25,2.09-.55,3.14-2.4,3.14-1.48,0-2.34-.8-2.59-2.4l-.92-6.1c-.99-6.4-2.71-11.39-5.17-14.96-2.46-3.57-5.24-6.12-8.31-7.67-3.08-1.54-6.03-2.31-8.87-2.31-5.42,0-9.11.86-11.08,2.59-1.97,1.73-2.96,4.37-2.96,7.94v43.59c0,1.73.86,2.59,2.59,2.59h6.46c5.42,0,8.74-2.89,9.97-8.68l2.03-9.24c.37-1.6,1.29-2.4,2.77-2.4s2.22,1.05,2.22,3.14v41.56c0,2.09-.74,3.14-2.22,3.14s-2.4-.8-2.77-2.4l-2.03-9.05c-.86-4.31-2.06-7.14-3.6-8.5-1.54-1.35-3.73-2.03-6.56-2.03h-6.28c-1.73,0-2.59.86-2.59,2.59v50.43c0,2.59.4,4.4,1.2,5.45.8,1.05,2.49,1.75,5.08,2.12l8.68,1.29c1.35.25,2.03.92,2.03,2.03,0,1.48-.92,2.22-2.77,2.22h-37.5Z"/><path d="m469.91,158.86c-1.48,0-2.22-.68-2.22-2.03,0-1.23.68-1.97,2.03-2.22l2.59-.37c2.59-.37,4.49-1.11,5.73-2.22,1.23-1.11,1.85-2.96,1.85-5.54V40.64c0-2.22-.34-3.76-1.02-4.62-.68-.86-1.88-1.35-3.6-1.48l-4.25-.55c-1.36-.25-2.03-.98-2.03-2.22s.68-1.97,2.03-2.22c3.45-.74,6.4-1.6,8.87-2.59,2.46-.98,4.49-1.97,6.1-2.96,1.97-1.23,3.45-1.85,4.43-1.85,1.35,0,2.03.99,2.03,2.96v121.36c0,2.59.4,4.4,1.2,5.45.8,1.05,2.49,1.75,5.08,2.12l4.25.55c1.35.25,2.03.99,2.03,2.22,0,1.36-.74,2.03-2.22,2.03h-32.88Z"/><path d="m542.87,160.52c-6.04,0-11.45-1.97-16.25-5.91-4.8-3.94-8.59-9.51-11.36-16.72-2.77-7.2-4.16-15.55-4.16-25.03s1.42-18.29,4.25-25.68c2.83-7.39,6.71-13.18,11.64-17.36,4.92-4.18,10.41-6.28,16.44-6.28,7.26,0,13.14,2.99,17.64,8.96,4.49,5.97,6.74,15.67,6.74,29.09,0,4.06-1.54,6.1-4.62,6.1h-35.1c-2.46,0-3.69,1.42-3.69,4.25,0,13.05,1.91,23,5.73,29.83,3.82,6.83,9.17,10.25,16.07,10.25,4.31,0,7.85-1.17,10.62-3.51,2.77-2.34,4.96-5.6,6.56-9.79.61-1.35,1.41-2.03,2.4-2.03.74,0,1.23.31,1.48.92.25.62.25,1.29,0,2.03-1.6,6.04-4.34,11.02-8.22,14.96-3.88,3.94-9.27,5.91-16.16,5.91Zm-15.33-57.45h18.66c5.91,0,8.87-3.08,8.87-9.24,0-8-.99-14.28-2.96-18.84-1.97-4.55-4.93-6.83-8.87-6.83-4.8,0-8.84,2.77-12.1,8.31-3.26,5.54-5.39,13.42-6.37,23.64-.25,1.97.68,2.96,2.77,2.96Z"/><path d="m577.96,158.86c-1.85,0-2.77-.68-2.77-2.03,0-1.11.8-1.85,2.4-2.22l2.22-.37c2.59-.49,4.28-1.26,5.08-2.31.8-1.04,1.2-2.86,1.2-5.45v-62.06c0-2.22-.34-3.72-1.02-4.53-.68-.8-1.88-1.32-3.6-1.57l-3.88-.55c-1.6-.12-2.4-.8-2.4-2.03,0-.98.98-1.66,2.96-2.03,3.82-.61,6.74-1.6,8.77-2.96,2.03-1.35,4.16-3.02,6.37-4.99,1.11-1.11,2.03-1.66,2.77-1.66,1.11,0,1.66.74,1.66,2.22v8.31c0,.86.37,1.51,1.11,1.94.74.43,1.54.22,2.4-.65,5.05-4.8,9.45-8.06,13.21-9.79,3.75-1.72,7.54-2.59,11.36-2.59,3.57,0,6.74.96,9.51,2.86,2.77,1.91,4.83,4.77,6.19,8.59.37.99,1.02,1.57,1.94,1.75s1.82-.15,2.68-1.02c5.05-4.68,9.42-7.88,13.11-9.61,3.69-1.72,7.45-2.59,11.27-2.59,5.17,0,9.39,1.94,12.65,5.82,3.26,3.88,4.89,9.58,4.89,17.09v60.03c0,2.59.4,4.4,1.2,5.45.8,1.05,2.49,1.75,5.08,2.12l4.06.55c1.35.25,2.03.99,2.03,2.22,0,1.36-.74,2.03-2.22,2.03h-31.59c-1.73,0-2.59-.68-2.59-2.03,0-1.23.68-1.97,2.03-2.22l2.59-.37c2.83-.37,4.68-1.11,5.54-2.22.86-1.11,1.29-2.96,1.29-5.54v-58c0-6.03-1.08-10.28-3.23-12.75-2.16-2.46-5.08-3.69-8.77-3.69s-7.05,1.14-10.07,3.42c-3.02,2.28-5.45,5.3-7.3,9.05-1.85,3.76-2.77,7.91-2.77,12.47v49.5c0,2.59.43,4.4,1.29,5.45.86,1.05,2.65,1.75,5.36,2.12l4.06.55c1.35.25,2.03.99,2.03,2.22,0,1.36-.74,2.03-2.22,2.03h-31.4c-1.73,0-2.59-.68-2.59-2.03,0-1.23.68-1.97,2.03-2.22l2.59-.37c2.59-.37,4.28-1.11,5.08-2.22.8-1.11,1.2-2.96,1.2-5.54v-58c0-6.03-1.08-10.28-3.23-12.75-2.16-2.46-5.08-3.69-8.77-3.69s-7.05,1.14-10.07,3.42c-3.02,2.28-5.45,5.3-7.3,9.05-1.85,3.76-2.77,7.91-2.77,12.47v49.5c0,2.59.4,4.43,1.2,5.54.8,1.11,2.49,1.79,5.08,2.03l4.99.55c1.35.25,2.03.92,2.03,2.03,0,1.48-.92,2.22-2.77,2.22h-31.22Z"/><path d="m708,158.86c-1.85,0-2.77-.68-2.77-2.03,0-1.11.8-1.85,2.4-2.22l2.22-.37c2.59-.49,4.28-1.26,5.08-2.31.8-1.04,1.2-2.86,1.2-5.45v-62.06c0-2.22-.34-3.72-1.02-4.53-.68-.8-1.88-1.32-3.6-1.57l-3.88-.55c-1.6-.12-2.4-.8-2.4-2.03,0-.98.98-1.66,2.96-2.03,3.82-.61,6.74-1.6,8.77-2.96,2.03-1.35,4.16-3.02,6.37-4.99,1.11-1.11,2.03-1.66,2.77-1.66,1.11,0,1.66.74,1.66,2.22v8.31c0,.86.37,1.51,1.11,1.94.74.43,1.54.22,2.4-.65,5.05-4.8,9.45-8.06,13.21-9.79,3.75-1.72,7.54-2.59,11.36-2.59,3.57,0,6.74.96,9.51,2.86,2.77,1.91,4.83,4.77,6.19,8.59.37.99,1.02,1.57,1.94,1.75s1.82-.15,2.68-1.02c5.05-4.68,9.42-7.88,13.11-9.61,3.69-1.72,7.45-2.59,11.27-2.59,5.17,0,9.39,1.94,12.65,5.82,3.26,3.88,4.89,9.58,4.89,17.09v60.03c0,2.59.4,4.4,1.2,5.45.8,1.05,2.49,1.75,5.08,2.12l4.06.55c1.35.25,2.03.99,2.03,2.22,0,1.36-.74,2.03-2.22,2.03h-31.59c-1.73,0-2.59-.68-2.59-2.03,0-1.23.68-1.97,2.03-2.22l2.59-.37c2.83-.37,4.68-1.11,5.54-2.22.86-1.11,1.29-2.96,1.29-5.54v-58c0-6.03-1.08-10.28-3.23-12.75-2.16-2.46-5.08-3.69-8.77-3.69s-7.05,1.14-10.07,3.42c-3.02,2.28-5.45,5.3-7.3,9.05-1.85,3.76-2.77,7.91-2.77,12.47v49.5c0,2.59.43,4.4,1.29,5.45.86,1.05,2.65,1.75,5.36,2.12l4.06.55c1.35.25,2.03.99,2.03,2.22,0,1.36-.74,2.03-2.22,2.03h-31.4c-1.73,0-2.59-.68-2.59-2.03,0-1.23.68-1.97,2.03-2.22l2.59-.37c2.59-.37,4.28-1.11,5.08-2.22.8-1.11,1.2-2.96,1.2-5.54v-58c0-6.03-1.08-10.28-3.23-12.75-2.16-2.46-5.08-3.69-8.77-3.69s-7.05,1.14-10.07,3.42c-3.02,2.28-5.45,5.3-7.3,9.05-1.85,3.76-2.77,7.91-2.77,12.47v49.5c0,2.59.4,4.43,1.2,5.54.8,1.11,2.49,1.79,5.08,2.03l4.99.55c1.35.25,2.03.92,2.03,2.03,0,1.48-.92,2.22-2.77,2.22h-31.22Z"/><path d="m838.04,158.86c-1.85,0-2.77-.68-2.77-2.03,0-1.11.8-1.85,2.4-2.22l2.22-.37c3.08-.49,5.05-1.26,5.91-2.31.86-1.04,1.29-2.86,1.29-5.45v-62.06c0-2.22-.34-3.72-1.02-4.53-.68-.8-1.88-1.32-3.6-1.57l-3.88-.55c-1.6-.12-2.4-.8-2.4-2.03,0-.98.98-1.66,2.96-2.03,3.82-.61,6.9-1.6,9.24-2.96,2.34-1.35,4.62-3.02,6.83-4.99,1.11-1.11,2.03-1.66,2.77-1.66,1.11,0,1.66.74,1.66,2.22v80.17c0,2.59.37,4.43,1.11,5.54.74,1.11,2.15,1.79,4.25,2.03l4.62.55c1.35.25,2.03.92,2.03,2.03,0,1.48-.92,2.22-2.77,2.22h-30.85Zm15.15-111.75c-2.59,0-4.77-.92-6.56-2.77-1.79-1.85-2.68-4.19-2.68-7.02s.89-5.14,2.68-6.93c1.78-1.78,3.97-2.68,6.56-2.68s4.74.89,6.46,2.68c1.72,1.79,2.59,4.1,2.59,6.93s-.86,5.17-2.59,7.02c-1.73,1.85-3.88,2.77-6.46,2.77Z"/><path d="m879.23,158.86c-1.85,0-2.77-.68-2.77-2.03,0-1.11.8-1.85,2.4-2.22l2.22-.37c2.59-.49,4.28-1.26,5.08-2.31.8-1.04,1.2-2.86,1.2-5.45v-62.06c0-2.22-.34-3.72-1.02-4.53-.68-.8-1.88-1.32-3.6-1.57l-3.88-.55c-1.6-.12-2.4-.8-2.4-2.03,0-.98.98-1.66,2.96-2.03,3.82-.61,6.74-1.6,8.77-2.96,2.03-1.35,4.16-3.02,6.37-4.99,1.11-1.11,2.03-1.66,2.77-1.66,1.11,0,1.66.74,1.66,2.22v8.31c0,1.11.4,1.82,1.2,2.12.8.31,1.69-.03,2.68-1.02,4.92-4.68,9.26-7.88,13.02-9.61,3.75-1.72,7.73-2.59,11.91-2.59,5.54,0,9.97,1.94,13.3,5.82,3.33,3.88,4.99,9.58,4.99,17.09v60.03c0,2.59.4,4.4,1.2,5.45.8,1.05,2.49,1.75,5.08,2.12l4.06.55c1.35.25,2.03.99,2.03,2.22,0,1.36-.74,2.03-2.22,2.03h-31.03c-1.73,0-2.59-.68-2.59-2.03,0-1.23.67-1.97,2.03-2.22l2.59-.37c2.59-.37,4.28-1.11,5.08-2.22.8-1.11,1.2-2.96,1.2-5.54v-58c0-6.03-1.11-10.28-3.32-12.75-2.22-2.46-5.36-3.69-9.42-3.69s-7.48,1.14-10.62,3.42c-3.14,2.28-5.63,5.3-7.48,9.05-1.85,3.76-2.77,7.91-2.77,12.47v49.5c0,2.59.4,4.43,1.2,5.54.8,1.11,2.49,1.79,5.08,2.03l4.99.55c1.35.25,2.03.92,2.03,2.03,0,1.48-.92,2.22-2.77,2.22h-31.22Z"/><path d="m993.39,198.57c-9.36,0-16.75-1.88-22.17-5.63-5.42-3.76-8.13-8.28-8.13-13.58,0-2.22.31-4.22.92-6,.61-1.79,1.94-3.85,3.97-6.19,2.03-2.34,5.14-5.36,9.33-9.05,1.48-1.35,2.22-2.61,2.22-3.79s-.74-2.06-2.22-2.68c-4.43-1.85-7.08-4.22-7.94-7.11-.86-2.89.18-5.57,3.14-8.04l13.3-11.45c1.48-1.23,1.42-2.28-.18-3.14-5.05-2.46-9.05-6.28-12.01-11.45-2.96-5.17-4.43-10.71-4.43-16.62s1.23-10.77,3.69-15.33c2.46-4.55,5.79-8.19,9.97-10.9,4.18-2.71,8.87-4.06,14.04-4.06,2.96,0,5.79.49,8.5,1.48,1.72.62,2.77.06,3.14-1.66,1.11-4.68,3.17-8.34,6.19-10.99,3.02-2.65,6-3.97,8.96-3.97s5.14.83,6.93,2.49c1.78,1.66,2.68,3.73,2.68,6.19,0,2.09-.62,3.76-1.85,4.99s-2.77,1.85-4.62,1.85c-1.6,0-2.77-.31-3.51-.92-.74-.62-1.42-1.23-2.03-1.85-.62-.61-1.6-.92-2.96-.92-2.96,0-4.8,1.6-5.54,4.8-.37,1.23-.34,2.28.09,3.14.43.86,1.08,1.73,1.94,2.59,2.96,2.83,5.26,6.28,6.93,10.34s2.49,8.56,2.49,13.48c0,5.91-1.2,11.21-3.6,15.89-2.4,4.68-5.67,8.38-9.79,11.08-4.13,2.71-8.77,4.06-13.95,4.06-2.22,0-4.13.46-5.73,1.39-1.6.92-3.2,2.25-4.8,3.97l-3.14,3.51c-1.6,1.97-2.06,3.85-1.38,5.63.67,1.79,2.37,2.68,5.08,2.68h15.89c8.87,0,15.89,2.19,21.06,6.56,5.17,4.37,7.76,10.37,7.76,18.01,0,6.03-1.73,11.39-5.17,16.07-3.45,4.68-8.04,8.37-13.76,11.08-5.73,2.71-12.16,4.06-19.3,4.06Zm2.22-4.06c4.43,0,8.5-.99,12.19-2.96,3.69-1.97,6.62-4.71,8.77-8.22,2.15-3.51,3.23-7.48,3.23-11.91,0-5.54-1.63-9.82-4.9-12.84-3.26-3.02-7.85-4.53-13.76-4.53h-4.25c-3.82,0-6.68.37-8.59,1.11-1.91.74-3.73,2.03-5.45,3.88-3.82,4.06-6.22,7.33-7.2,9.79-.99,2.46-1.48,4.99-1.48,7.57,0,5.42,1.88,9.79,5.63,13.12,3.75,3.32,9.02,4.99,15.79,4.99Zm1.11-73.52c4.43,0,7.94-2.4,10.53-7.2,2.59-4.8,3.88-11.33,3.88-19.58s-1.33-14.44-3.97-19.3c-2.65-4.86-6.13-7.3-10.44-7.3s-7.79,2.43-10.44,7.3c-2.65,4.87-3.97,11.3-3.97,19.3s1.29,14.78,3.88,19.58c2.59,4.8,6.1,7.2,10.53,7.2Z"/></g></svg>