<?xml version="1.0" encoding="UTF-8"?><svg id="Layer_2" xmlns="http://www.w3.org/2000/svg" width="387.59" height="386.37" viewBox="0 0 387.59 386.37"><defs><style>.cls-1{fill:#f7f6f1;}</style></defs><g id="Layer_1-2"><path class="cls-1" d="m123.87,36.76c-.6-1.7-1.25-3.83-1.6-5l5.34-1.9c.36,1.17.98,3.08,1.6,4.83,1.7,4.8,5.03,6.88,9.37,5.34,4.35-1.54,5.88-5.46,3.65-11.75l-6.77-19.08,6-2.13,6.62,18.68c3.44,9.69.56,16.33-7.53,19.21-7.94,2.82-13.87-.26-16.69-8.2Z"/><path class="cls-1" d="m155.79,25.59l-2.87-21.54,6.25-.83,2.86,21.43c.7,5.25,4.72,7.76,10.35,7.02,5.67-.76,8.85-4.23,8.15-9.48l-2.86-21.43,5.62-.75,2.87,21.54c1.11,8.3-4.02,14.33-13.32,15.57-9.35,1.25-15.94-3.22-17.04-11.52Z"/><path class="cls-1" d="m194.99.03l6.35.39-1.8,29.52,17.25,1.05-.32,5.29-23.59-1.44L194.99.03Z"/><path class="cls-1" d="m226.53,3.07l6.2,1.17-6.45,34.28-6.2-1.17,6.45-34.28Z"/><path class="cls-1" d="m236.22,26.65l7.22-20.5,5.95,2.1-7.18,20.4c-1.76,5,.68,9.06,6.03,10.95,5.4,1.9,9.8.25,11.56-4.75l7.18-20.4,5.35,1.88-7.22,20.49c-2.78,7.9-10.09,10.94-18.94,7.83-8.9-3.13-12.74-10.11-9.95-18Z"/><path class="cls-1" d="m270.37,40.75l4.87,3.01c-2.34,3.79-2.15,7.52,3.53,11.03,6.04,3.73,8.97,2.42,10.47-.01,1-1.62.91-2.99-.18-4.35-1.13-1.5-4.08-3.89-6.42-5.84-2.73-2.24-5.46-4.87-6.45-6.91-1.11-2.24-.98-4.97.74-7.76,3.34-5.41,10.33-6.33,18.08-1.54,8.79,5.43,9.6,11.29,5.42,18.05l-4.87-3.01c2.7-4.37,1.59-7.92-3.05-10.79-4.46-2.76-8.27-2.55-9.94.15-1.03,1.67-1.06,3.02-.22,4.29.92,1.44,3.92,4.04,6.27,5.99,2.8,2.42,5.38,4.7,6.62,6.83,1.39,2.29,1.28,5.09-.42,7.84-2.95,4.78-8.5,7.52-18.6,1.28-9.83-6.07-9.2-12.84-5.86-18.25Z"/><path class="cls-1" d="m326.49,52.83l16.04,16.93-3.85,3.65-11.67-12.31-7.69,7.29,9.84,10.39-3.23,3.06-9.84-10.39-10.54,9.99-4.37-4.62,25.31-23.99Z"/><path class="cls-1" d="m348.11,76.99l3.54,5.28-24.56,16.48,9.62,14.35-4.4,2.95-13.17-19.63,28.97-19.43Z"/><path class="cls-1" d="m365.54,104.65l9.69,21.79-4.84,2.15-7.1-15.98-9.11,4.05,5.64,12.69-3.78,1.68-5.64-12.69-9.3,4.13,7.3,16.42-4.84,2.15-9.88-22.23,31.87-14.17Z"/><path class="cls-1" d="m379.41,137.12l1.94,9.99-24.08,14.19.02.1,27.65,4.18,1.89,9.73-34.24,6.66-1.21-6.24,29.38-5.55-.02-.1-31.38-4.75-1.01-5.2,27.31-16.16-.02-.1-29.33,5.81-1.14-5.88,34.24-6.66Z"/><path class="cls-1" d="m387.59,189.34l-.81,10.14-27,7.2v.11s25.5,11.45,25.5,11.45l-.79,9.88-34.76-2.78.51-6.34,29.78,2.54v-.11s-28.94-13-28.94-13l.42-5.28,30.64-8.23v-.11s-29.79-2.28-29.79-2.28l.48-5.97,34.76,2.78Z"/><path class="cls-1" d="m381.11,239.45l-1.61,6.1-33.73-8.9,1.61-6.1,33.73,8.9Z"/><path class="cls-1" d="m376.75,256.46l-3.86,8.73-30.95,4.45-.04.1,24.28,10.62-2.42,5.48-31.9-14.11,3.04-6.88,34.58-5.05.02-.05-27.07-11.92,2.42-5.48,31.9,14.11Z"/><path class="cls-1" d="m343.71,285.27c8.91,6.76,9.92,17.25,3.7,25.44-5.32,7.01-13.09,9.43-19.42,4.62-.46-.35-1.11-.91-1.58-1.33l3.43-4.52c.47.43.94.78,1.32,1.07,3.93,2.98,8.73,1.3,11.96-2.96,4.07-5.36,3.08-12.37-3.34-17.25-6.2-4.71-13.15-3.54-16.97,1.49-3.37,4.43-3.29,9.68.46,12.53l.63.48,6.54-8.61,3.21,2.44-10.26,13.51-13.67-10.39,3.21-4.22c1.03.92,2.92,2.55,4.79,4.04l.03-.04c-2.57-3.28-2.39-8.07,1.46-13.14,6.03-7.93,15.8-9.76,24.5-3.16Z"/><path class="cls-1" d="m264.2,349.43c.61,1.7,1.26,3.83,1.62,4.99l-5.34,1.91c-.36-1.17-.99-3.08-1.62-4.83-1.71-4.79-5.05-6.86-9.39-5.31-4.34,1.55-5.86,5.48-3.61,11.76l6.83,19.06-5.99,2.14-6.68-18.66c-3.47-9.68-.61-16.33,7.47-19.23,7.93-2.84,13.87.21,16.71,8.15Z"/><path class="cls-1" d="m232.29,360.7l2.93,21.53-6.25.85-2.92-21.43c-.71-5.25-4.75-7.75-10.37-6.99-5.67.77-8.84,4.25-8.12,9.51l2.92,21.43-5.62.77-2.93-21.53c-1.13-8.3,3.98-14.34,13.28-15.61,9.35-1.27,15.95,3.18,17.08,11.47Z"/><path class="cls-1" d="m193.2,386.37l-6.35-.37,1.71-29.53-17.25-1,.31-5.29,23.6,1.37-2.02,34.82Z"/><path class="cls-1" d="m161.61,383.42l-6.2-1.15,6.35-34.29,6.2,1.15-6.35,34.29Z"/><path class="cls-1" d="m151.85,359.87l-7.16,20.51-5.95-2.08,7.12-20.41c1.75-5-.71-9.06-6.06-10.93-5.4-1.88-9.8-.22-11.55,4.78l-7.12,20.41-5.35-1.87,7.16-20.51c2.76-7.91,10.06-10.97,18.91-7.88,8.91,3.11,12.76,10.07,10.01,17.97Z"/><path class="cls-1" d="m117.67,345.88l-4.88-3c2.33-3.79,2.13-7.52-3.56-11.02-6.05-3.72-8.98-2.4-10.47.04-1,1.63-.9,2.99.19,4.35,1.13,1.5,4.09,3.88,6.44,5.82,2.73,2.24,5.48,4.85,6.47,6.89,1.11,2.24,1,4.96-.72,7.77-3.33,5.42-10.31,6.36-18.08,1.59-8.81-5.41-9.63-11.26-5.48-18.04l4.88,2.99c-2.69,4.38-1.57,7.93,3.08,10.79,4.47,2.75,8.28,2.53,9.94-.18,1.03-1.67,1.05-3.03.21-4.29-.92-1.44-3.93-4.03-6.29-5.97-2.81-2.41-5.4-4.68-6.64-6.81-1.4-2.29-1.29-5.09.4-7.84,2.94-4.79,8.48-7.54,18.61-1.33,9.85,6.04,9.24,12.82,5.91,18.24Z"/><path class="cls-1" d="m61.53,333.99l-16.09-16.88,3.84-3.66,11.7,12.28,7.67-7.32-9.88-10.36,3.22-3.07,9.88,10.36,10.51-10.02,4.39,4.6-25.24,24.07Z"/><path class="cls-1" d="m39.83,309.87l-3.56-5.27,24.51-16.54-9.67-14.32,4.39-2.96,13.22,19.59-28.91,19.51Z"/><path class="cls-1" d="m22.31,282.28l-9.76-21.77,4.84-2.17,7.15,15.96,9.09-4.08-5.68-12.67,3.77-1.69,5.68,12.67,9.29-4.16-7.35-16.4,4.84-2.17,9.95,22.2-31.83,14.27Z"/><path class="cls-1" d="m8.36,249.87l-1.97-9.98,24.03-14.26-.02-.1-27.66-4.09-1.92-9.72,34.21-6.77,1.23,6.24-29.35,5.64.02.1,31.39,4.65,1.03,5.2-27.25,16.25.02.1,29.3-5.9,1.16,5.87-34.21,6.77Z"/><path class="cls-1" d="m0,197.64l.78-10.15,26.98-7.28v-.11s-25.54-11.37-25.54-11.37l.76-9.88,34.77,2.67-.49,6.34-29.79-2.45v.11s28.98,12.91,28.98,12.91l-.41,5.28-30.62,8.33v.11s29.8,2.18,29.8,2.18l-.46,5.97-34.77-2.67Z"/><path class="cls-1" d="m6.34,147.54l1.59-6.1,33.75,8.79-1.59,6.1-33.75-8.79Z"/><path class="cls-1" d="m10.64,130.5l3.83-8.74,30.93-4.55.04-.1-24.31-10.55,2.41-5.48,31.94,14.01-3.02,6.89-34.56,5.16-.02.05,27.11,11.83-2.41,5.48-31.94-14.01Z"/><path class="cls-1" d="m43.59,101.58c-8.92-6.74-9.97-17.23-3.78-25.43,5.3-7.02,13.06-9.47,19.4-4.68.47.35,1.11.91,1.59,1.33l-3.42,4.53c-.48-.43-.94-.78-1.32-1.06-3.93-2.97-8.73-1.28-11.96,2.99-4.06,5.37-3.04,12.38,3.39,17.24,6.22,4.69,13.16,3.5,16.96-1.54,3.35-4.44,3.26-9.69-.5-12.53l-.63-.48-6.52,8.63-3.21-2.43,10.22-13.54,13.7,10.35-3.19,4.23c-1.04-.92-2.93-2.54-4.8-4.02l-.03.04c2.58,3.27,2.41,8.06-1.42,13.14-6,7.95-15.77,9.81-24.49,3.23Z"/><rect class="cls-1" x="295.92" y="317.2" width=".74" height="36"/><rect class="cls-1" x="295.92" y="317.2" width=".74" height="36" transform="translate(323.8 -111.33) rotate(45)"/><rect class="cls-1" x="295.92" y="317.2" width=".74" height="36" transform="translate(631.49 38.91) rotate(90)"/><rect class="cls-1" x="295.92" y="317.2" width=".74" height="36" transform="translate(742.82 362.71) rotate(135)"/><rect class="cls-1" x="295.92" y="317.2" width=".74" height="36" transform="translate(742.82 362.71) rotate(135)"/><rect class="cls-1" x="295.92" y="317.2" width=".74" height="36" transform="translate(150.29 -87.68) rotate(22.43)"/><rect class="cls-1" x="295.92" y="317.2" width=".74" height="36" transform="translate(492.07 -67.06) rotate(67.43)"/><rect class="cls-1" x="295.92" y="317.2" width=".74" height="36" transform="translate(719.17 189.19) rotate(112.43)"/><rect class="cls-1" x="295.92" y="317.2" width=".74" height="36" transform="translate(698.55 530.98) rotate(157.43)"/><rect class="cls-1" x="295.92" y="317.2" width=".74" height="36" transform="translate(698.55 530.98) rotate(157.43)"/><rect class="cls-1" x="92.92" y="30.2" width=".74" height="36"/><rect class="cls-1" x="92.92" y="30.2" width=".74" height="36" transform="translate(61.41 -51.85) rotate(45)"/><rect class="cls-1" x="92.92" y="30.2" width=".74" height="36" transform="translate(141.49 -45.09) rotate(90)"/><rect class="cls-1" x="92.92" y="30.2" width=".74" height="36" transform="translate(193.34 16.31) rotate(135)"/><rect class="cls-1" x="92.92" y="30.2" width=".74" height="36" transform="translate(193.34 16.31) rotate(135)"/><rect class="cls-1" x="92.92" y="30.2" width=".74" height="36" transform="translate(25.44 -31.95) rotate(22.43)"/><rect class="cls-1" x="92.92" y="30.2" width=".74" height="36" transform="translate(101.99 -56.45) rotate(67.43)"/><rect class="cls-1" x="92.92" y="30.2" width=".74" height="36" transform="translate(173.44 -19.65) rotate(112.43)"/><rect class="cls-1" x="92.92" y="30.2" width=".74" height="36" transform="translate(197.94 56.89) rotate(157.43)"/><rect class="cls-1" x="92.92" y="30.2" width=".74" height="36" transform="translate(197.94 56.89) rotate(157.43)"/></g></svg>