<?xml version="1.0" encoding="utf-8"?>
<!-- Generator: Adobe Illustrator 26.3.1, SVG Export Plug-In . SVG Version: 6.00 Build 0)  -->
<svg version="1.1" id="Layer_1" xmlns="http://www.w3.org/2000/svg" xmlns:xlink="http://www.w3.org/1999/xlink" x="0px" y="0px"
	 viewBox="0 0 100 60" style="enable-background:new 0 0 100 60;" xml:space="preserve">
<g>
	<g>
		<path d="M0.66,35.7V24.02h3.7l1.7,4.79c0.49,1.42,0.86,2.54,1.1,3.34h0.12c0.24-0.8,0.61-1.91,1.1-3.34l1.7-4.79h3.7V35.7h-2.5
			v-5.17c0-1.65,0.01-2.93,0.02-3.85l-0.1-0.02l-1.23,3.84L8.25,35.7H6.2l-1.72-5.21l-1.23-3.84l-0.1,0.02
			c0.01,0.92,0.02,2.21,0.02,3.85v5.17H0.66z"/>
		<path d="M15.81,31.74c0.58-0.44,1.45-0.66,2.62-0.65c1.07,0.01,1.81-0.08,2.24-0.27c0.42-0.19,0.63-0.5,0.63-0.93
			c0-0.34-0.14-0.64-0.43-0.9c-0.29-0.26-0.75-0.38-1.37-0.38c-0.65,0-1.15,0.17-1.5,0.52c-0.36,0.34-0.56,0.81-0.62,1.38h-2.35
			c0.03-0.68,0.22-1.3,0.56-1.85c0.34-0.56,0.84-1,1.49-1.33c0.66-0.33,1.46-0.5,2.4-0.5c1.39,0,2.43,0.31,3.12,0.94
			c0.69,0.63,1.03,1.44,1.03,2.43v5.51h-2.27l-0.07-2.69h-0.08c-0.11,0.95-0.47,1.67-1.07,2.19c-0.6,0.51-1.36,0.77-2.29,0.77
			c-0.87,0-1.57-0.2-2.11-0.61c-0.54-0.41-0.81-1-0.81-1.78C14.94,32.8,15.23,32.19,15.81,31.74z M17.69,34.14
			c0.23,0.18,0.56,0.28,0.99,0.28c0.47,0,0.9-0.11,1.3-0.33c0.4-0.22,0.72-0.52,0.96-0.88c0.24-0.37,0.36-0.76,0.36-1.17v-1.32
			h-0.08c-0.06,0.37-0.17,0.66-0.34,0.88c-0.17,0.22-0.45,0.39-0.82,0.52c-0.37,0.12-0.89,0.21-1.56,0.25
			c-0.36,0.02-0.64,0.12-0.84,0.3c-0.21,0.18-0.31,0.42-0.31,0.72C17.35,33.7,17.46,33.95,17.69,34.14z"/>
		<path d="M31.71,24.02h2.37V35.7H31.8l-0.08-2.39h-0.08c-0.24,0.88-0.65,1.54-1.23,1.99c-0.57,0.45-1.23,0.68-1.96,0.68
			c-0.7,0-1.33-0.19-1.89-0.56c-0.56-0.37-0.99-0.9-1.3-1.59c-0.31-0.69-0.47-1.49-0.47-2.4c0-0.92,0.16-1.73,0.47-2.43
			c0.31-0.7,0.75-1.23,1.3-1.6c0.56-0.37,1.18-0.56,1.89-0.56c0.73,0,1.39,0.23,1.96,0.68c0.57,0.46,0.98,1.12,1.23,2h0.08V24.02z
			 M31.1,33.65c0.41-0.45,0.62-1.03,0.62-1.73v-1.02c0-0.7-0.21-1.28-0.62-1.74c-0.41-0.46-0.96-0.68-1.64-0.68
			c-0.69,0-1.24,0.26-1.66,0.78c-0.42,0.52-0.63,1.24-0.63,2.16c0,0.9,0.21,1.61,0.63,2.13c0.42,0.52,0.97,0.78,1.66,0.78
			C30.14,34.33,30.68,34.1,31.1,33.65z"/>
		<path d="M35.68,35.7V24.02H38v3.9c0,0.99-0.02,1.99-0.05,2.99l0.08,0.03c0.27-0.4,0.53-0.75,0.8-1.03
			c0.27-0.29,0.62-0.65,1.05-1.08l0.23-0.23l1.57-1.5h2.75l-1.74,1.69c-0.71,0.71-1.38,1.32-2,1.84v0.08l0.27,0.02
			c0.58,0.01,1.05,0.17,1.4,0.47c0.36,0.3,0.64,0.74,0.87,1.32l1.2,3.2h-2.42l-0.73-2.02c-0.17-0.46-0.37-0.8-0.61-1.02
			c-0.24-0.22-0.56-0.33-0.96-0.33h-0.63L38,33.38v2.32H35.68z"/>
		<path d="M45.28,35.7V24.02h2.37V35.7H45.28z"/>
		<path d="M55.71,27.09h2.39v8.61h-2.32l-0.07-2.62h-0.1c-0.08,0.59-0.27,1.1-0.58,1.54c-0.31,0.43-0.69,0.77-1.14,1
			c-0.46,0.23-0.94,0.35-1.45,0.35c-0.58,0-1.11-0.13-1.59-0.39c-0.48-0.26-0.87-0.64-1.15-1.14c-0.28-0.5-0.43-1.1-0.43-1.79v-5.56
			h2.37v4.84c0,0.71,0.17,1.25,0.51,1.62c0.34,0.37,0.83,0.55,1.46,0.55s1.14-0.22,1.53-0.67c0.38-0.44,0.58-1.06,0.58-1.84V27.09z"
			/>
		<path d="M67.23,27.38c0.55,0.37,0.98,0.9,1.29,1.59c0.31,0.69,0.47,1.5,0.47,2.42c0,0.92-0.16,1.73-0.47,2.42
			c-0.31,0.69-0.74,1.22-1.29,1.59c-0.55,0.37-1.18,0.56-1.89,0.56c-0.73,0-1.38-0.23-1.95-0.68c-0.57-0.45-0.97-1.12-1.22-1.99
			h-0.1L62,35.7h-2.3V24.02h2.37v5.49h0.1c0.24-0.89,0.65-1.56,1.22-2.01c0.57-0.45,1.22-0.68,1.95-0.68
			C66.05,26.82,66.68,27.01,67.23,27.38z M65.98,33.54c0.41-0.52,0.62-1.23,0.62-2.14c0-0.91-0.21-1.63-0.62-2.14
			c-0.41-0.52-0.96-0.78-1.65-0.78c-0.68,0-1.23,0.23-1.64,0.68c-0.42,0.46-0.63,1.03-0.63,1.74v1.02c0,0.69,0.21,1.26,0.63,1.72
			c0.42,0.46,0.96,0.68,1.64,0.68C65.02,34.31,65.57,34.05,65.98,33.54z"/>
		<path d="M77.76,27.38c0.55,0.37,0.98,0.9,1.29,1.59c0.31,0.69,0.47,1.5,0.47,2.42c0,0.92-0.16,1.73-0.47,2.42
			c-0.31,0.69-0.74,1.22-1.29,1.59c-0.55,0.37-1.18,0.56-1.89,0.56c-0.73,0-1.38-0.23-1.95-0.68c-0.57-0.45-0.97-1.12-1.22-1.99
			h-0.1l-0.07,2.4h-2.3V24.02h2.37v5.49h0.1c0.24-0.89,0.65-1.56,1.22-2.01c0.57-0.45,1.22-0.68,1.95-0.68
			C76.57,26.82,77.21,27.01,77.76,27.38z M76.51,33.54c0.41-0.52,0.62-1.23,0.62-2.14c0-0.91-0.21-1.63-0.62-2.14
			c-0.41-0.52-0.96-0.78-1.65-0.78c-0.68,0-1.23,0.23-1.64,0.68c-0.42,0.46-0.63,1.03-0.63,1.74v1.02c0,0.69,0.21,1.26,0.63,1.72
			c0.42,0.46,0.96,0.68,1.64,0.68C75.55,34.31,76.1,34.05,76.51,33.54z"/>
		<path d="M89.23,31.88h-6.57c0.01,0.71,0.23,1.27,0.67,1.69c0.43,0.41,0.99,0.62,1.67,0.62c0.53,0,0.99-0.14,1.36-0.41
			c0.37-0.27,0.61-0.63,0.73-1.06h2.07c-0.09,0.7-0.35,1.3-0.77,1.79c-0.42,0.49-0.93,0.86-1.53,1.1c-0.6,0.24-1.22,0.37-1.85,0.37
			c-1.42,0-2.55-0.4-3.37-1.2c-0.82-0.8-1.23-1.94-1.23-3.4c0-0.9,0.18-1.7,0.55-2.39c0.37-0.69,0.88-1.22,1.55-1.59
			c0.67-0.37,1.45-0.56,2.35-0.56c0.89,0,1.67,0.19,2.34,0.58c0.67,0.39,1.18,0.92,1.53,1.58c0.35,0.66,0.53,1.4,0.53,2.21V31.88z
			 M83.3,29.12c-0.39,0.34-0.61,0.83-0.65,1.47h4.24c-0.04-0.62-0.26-1.11-0.64-1.46s-0.87-0.53-1.46-0.53
			C84.19,28.61,83.69,28.78,83.3,29.12z"/>
		<path d="M97.74,27.21c0.48,0.26,0.87,0.64,1.16,1.14c0.29,0.5,0.43,1.1,0.43,1.79v5.56h-2.39v-4.84c0-0.69-0.17-1.22-0.52-1.6
			c-0.34-0.38-0.82-0.57-1.43-0.57c-0.66,0-1.17,0.22-1.54,0.66c-0.37,0.44-0.56,1.05-0.56,1.84v4.5h-2.39v-8.61h2.3l0.08,2.62H93
			c0.12-0.88,0.48-1.58,1.08-2.1c0.59-0.52,1.29-0.78,2.08-0.78C96.73,26.82,97.26,26.95,97.74,27.21z"/>
	</g>
</g>
</svg>
